<svg width="72" height="72" viewBox="0 0 72 72" fill="none" xmlns="http://www.w3.org/2000/svg">
<rect width="72" height="72" rx="16" fill="#1F1F1F"/>
<g clip-path="url(#clip0_238_3594)">
<path d="M34.9531 27.7852C34.9531 25.6157 36.7119 23.8568 38.8816 23.8568C41.0511 23.8568 42.81 25.6157 42.81 27.7852C42.81 29.9549 41.0511 31.7137 38.8816 31.7137C36.7119 31.7137 34.9531 29.9549 34.9531 27.7852Z" fill="#1ABCFE"/>
<path d="M27.0938 35.6422C27.0938 33.4726 28.8525 31.7137 31.0222 31.7137H34.9506V35.6422C34.9506 37.8118 33.1918 39.5706 31.0222 39.5706C28.8525 39.5706 27.0938 37.8118 27.0938 35.6422Z" fill="#0ACF83"/>
<path d="M34.9531 16.0001V23.8569H38.8816C41.0512 23.8569 42.81 22.0981 42.81 19.9285C42.81 17.7589 41.0512 16.0001 38.8816 16.0001H34.9531Z" fill="#FD6519"/>
<path d="M27.0938 19.9284C27.0938 22.0981 28.8525 23.8569 31.0222 23.8569H34.9506V16H31.0222C28.8525 16 27.0938 17.7589 27.0938 19.9284Z" fill="#FD6519"/>
<path d="M27.0938 27.7852C27.0938 29.9549 28.8525 31.7137 31.0222 31.7137H34.9506V23.8568H31.0222C28.8525 23.8568 27.0938 25.6157 27.0938 27.7852Z" fill="#A259FF"/>
</g>
<path d="M17.9565 52.123V43.4031H23.7301V44.9231H19.8001V47.0009H23.3469V48.521H19.8001V52.123H17.9565ZM24.9361 52.123V45.5831H26.7499V52.123H24.9361ZM25.8473 44.7401C25.5776 44.7401 25.3463 44.6506 25.1532 44.4718C24.9631 44.2901 24.868 44.073 24.868 43.8204C24.868 43.5706 24.9631 43.3563 25.1532 43.1774C25.3463 42.9958 25.5776 42.9049 25.8473 42.9049C26.1169 42.9049 26.3468 42.9958 26.537 43.1774C26.73 43.3563 26.8265 43.5706 26.8265 43.8204C26.8265 44.073 26.73 44.2901 26.537 44.4718C26.3468 44.6506 26.1169 44.7401 25.8473 44.7401ZM31.1493 54.7118C30.5617 54.7118 30.0578 54.6309 29.6377 54.4691C29.2205 54.3101 28.8884 54.093 28.6414 53.8176C28.3945 53.5423 28.2341 53.2329 28.1603 52.8894L29.8379 52.6638C29.889 52.7944 29.9699 52.9164 30.0806 53.03C30.1913 53.1435 30.3374 53.2343 30.5191 53.3025C30.7036 53.3734 30.9279 53.4089 31.1918 53.4089C31.5864 53.4089 31.9114 53.3124 32.1669 53.1194C32.4252 52.9292 32.5543 52.6099 32.5543 52.1614V50.9649H32.4777C32.3982 51.1466 32.279 51.3183 32.12 51.4801C31.9611 51.6419 31.7567 51.7739 31.5069 51.8761C31.2571 51.9783 30.9591 52.0294 30.6128 52.0294C30.1217 52.0294 29.6746 51.9158 29.2716 51.6888C28.8713 51.4588 28.552 51.1083 28.3136 50.6371C28.078 50.163 27.9602 49.5641 27.9602 48.8403C27.9602 48.0994 28.0808 47.4806 28.3221 46.9839C28.5634 46.4872 28.8841 46.1153 29.2843 45.8684C29.6874 45.6214 30.1288 45.4979 30.6085 45.4979C30.9747 45.4979 31.2812 45.5604 31.5282 45.6853C31.7752 45.8073 31.9738 45.9606 32.1243 46.1451C32.2776 46.3268 32.3954 46.5056 32.4777 46.6816H32.5458V45.5831H34.3469V52.1869C34.3469 52.7433 34.2106 53.2088 33.9381 53.5835C33.6656 53.9582 33.2881 54.2392 32.8055 54.4265C32.3258 54.6167 31.7737 54.7118 31.1493 54.7118ZM31.1876 50.6669C31.4799 50.6669 31.7269 50.5945 31.9284 50.4497C32.1328 50.3021 32.2889 50.0921 32.3968 49.8196C32.5075 49.5443 32.5628 49.215 32.5628 48.8318C32.5628 48.4486 32.5089 48.1165 32.401 47.8355C32.2932 47.5516 32.1371 47.3316 31.9327 47.1755C31.7283 47.0194 31.4799 46.9413 31.1876 46.9413C30.8895 46.9413 30.6383 47.0222 30.4339 47.184C30.2296 47.343 30.0749 47.5644 29.9699 47.8482C29.8648 48.1321 29.8123 48.4599 29.8123 48.8318C29.8123 49.2093 29.8648 49.5357 29.9699 49.8111C30.0777 50.0836 30.2324 50.295 30.4339 50.4455C30.6383 50.5931 30.8895 50.6669 31.1876 50.6669ZM35.7902 52.123V45.5831H37.5189V46.737H37.5955C37.7318 46.3538 37.9589 46.0514 38.2768 45.83C38.5947 45.6086 38.9751 45.4979 39.4179 45.4979C39.8664 45.4979 40.2481 45.6101 40.5632 45.8343C40.8783 46.0557 41.0883 46.3566 41.1934 46.737H41.2615C41.3949 46.3623 41.6362 46.0628 41.9853 45.8386C42.3373 45.6115 42.7531 45.4979 43.2328 45.4979C43.8431 45.4979 44.3384 45.6924 44.7188 46.0813C45.102 46.4673 45.2936 47.0151 45.2936 47.7248V52.123H43.4841V48.0824C43.4841 47.7191 43.3875 47.4466 43.1945 47.2649C43.0015 47.0833 42.7602 46.9924 42.4707 46.9924C42.1414 46.9924 41.8845 47.0974 41.7 47.3075C41.5155 47.5147 41.4233 47.7886 41.4233 48.1292V52.123H39.6648V48.0441C39.6648 47.7233 39.5726 47.4679 39.3881 47.2777C39.2064 47.0875 38.9665 46.9924 38.6685 46.9924C38.467 46.9924 38.2853 47.0435 38.1235 47.1457C37.9645 47.245 37.8382 47.3856 37.7446 47.5672C37.6509 47.746 37.6041 47.9561 37.6041 48.1974V52.123H35.7902ZM48.5913 52.2465C48.174 52.2465 47.8022 52.1741 47.4757 52.0294C47.1493 51.8818 46.891 51.6646 46.7008 51.3779C46.5135 51.0884 46.4198 50.7279 46.4198 50.2965C46.4198 49.9331 46.4865 49.628 46.6199 49.381C46.7533 49.1341 46.935 48.9354 47.1649 48.7849C47.3948 48.6345 47.656 48.521 47.9483 48.4443C48.2435 48.3677 48.5529 48.3138 48.8765 48.2825C49.2569 48.2428 49.5635 48.2059 49.7962 48.1718C50.029 48.1349 50.1979 48.081 50.3029 48.01C50.4079 47.9391 50.4604 47.834 50.4604 47.695V47.6694C50.4604 47.3997 50.3753 47.1911 50.205 47.0435C50.0375 46.8959 49.7991 46.8221 49.4897 46.8221C49.1632 46.8221 48.9035 46.8945 48.7105 47.0393C48.5175 47.1812 48.3897 47.36 48.3273 47.5757L46.6497 47.4395C46.7349 47.0421 46.9023 46.6986 47.1521 46.4091C47.4019 46.1167 47.7241 45.8925 48.1186 45.7364C48.516 45.5774 48.9759 45.4979 49.4982 45.4979C49.8615 45.4979 50.2092 45.5405 50.5413 45.6257C50.8763 45.7108 51.1729 45.8428 51.4312 46.0216C51.6923 46.2005 51.8981 46.4304 52.0486 46.7114C52.199 46.9896 52.2742 47.3231 52.2742 47.712V52.123H50.5541V51.2161H50.503C50.398 51.4205 50.2575 51.6008 50.0815 51.7569C49.9055 51.9102 49.694 52.0308 49.4471 52.1188C49.2001 52.2039 48.9149 52.2465 48.5913 52.2465ZM49.1107 50.9947C49.3775 50.9947 49.6131 50.9422 49.8175 50.8372C50.0219 50.7293 50.1823 50.5846 50.2986 50.4029C50.415 50.2212 50.4732 50.0154 50.4732 49.7855V49.0915C50.4164 49.1284 50.3384 49.1625 50.239 49.1937C50.1425 49.2221 50.0332 49.249 49.9112 49.2746C49.7891 49.2973 49.6671 49.3186 49.545 49.3385C49.4229 49.3555 49.3122 49.3711 49.2129 49.3853C49 49.4165 48.8141 49.4662 48.6551 49.5343C48.4962 49.6024 48.3727 49.6947 48.2847 49.8111C48.1967 49.9246 48.1527 50.0665 48.1527 50.2368C48.1527 50.4838 48.2421 50.6726 48.4209 50.8031C48.6026 50.9309 48.8325 50.9947 49.1107 50.9947Z" fill="#F3F4F6"/>
<defs>
<clipPath id="clip0_238_3594">
<rect width="15.7169" height="23.5706" fill="white" transform="translate(27.0938 16)"/>
</clipPath>
</defs>
</svg>
