<svg width="72" height="72" viewBox="0 0 72 72" fill="none" xmlns="http://www.w3.org/2000/svg">
<rect width="72" height="72" rx="16" fill="#1D9E26"/>
<path d="M35.4997 13C33.3658 13 31.6011 13.5626 29.994 14.5087C29.9677 14.5087 29.9672 14.5341 29.9672 14.5597C29.9672 14.5852 29.9939 14.5856 30.0202 14.5856C32.0752 14.1509 35.1837 15.8639 35.4735 16.0429H35.4997H35.5265C35.8163 15.8639 38.9248 14.1509 40.9798 14.5856C41.0061 14.5856 41.0322 14.5852 41.0322 14.5597C41.0322 14.5341 41.0323 14.5087 41.006 14.5087C39.3989 13.5626 37.6337 13 35.4997 13ZM42.5656 15.8821C42.0432 15.912 40.8281 16.3049 38.3977 18.6253L38.3715 18.6508C38.3715 18.6508 38.3714 18.6768 38.3977 18.6768C40.5317 21.1315 44.6418 26.9869 43.8515 29.416V29.467C43.8778 29.467 43.904 29.4671 43.904 29.4415C45.2476 27.7283 46.0646 25.5547 46.0646 23.2279C46.0646 20.3896 44.879 17.8071 42.9294 15.9405C42.9031 15.9149 42.9028 15.915 42.8764 15.915C42.8369 15.9023 42.7397 15.8721 42.5656 15.8821ZM28.4231 15.8931C28.2452 15.8863 28.1429 15.9213 28.0968 15.9405C28.0705 15.9405 28.0707 15.966 28.0444 15.966C26.1211 17.8326 24.9354 20.4151 24.9354 23.2534C24.9354 25.5802 25.7524 27.7538 27.096 29.467C27.096 29.4926 27.1222 29.4925 27.1485 29.4925C27.1749 29.4925 27.1749 29.4671 27.1485 29.4415C26.3318 27.0124 30.4678 21.1569 32.6018 18.7022L32.6285 18.6768C32.6285 18.6512 32.6281 18.6508 32.6018 18.6508C30.1714 16.3112 28.9566 15.9134 28.4231 15.8931ZM35.4997 21.2337C35.4997 21.2337 35.4735 21.2336 35.4735 21.2592C32.3121 23.5861 26.8853 29.3647 28.545 31.0012C30.3892 32.5865 32.8389 33.5327 35.4997 33.5327C38.1606 33.5327 40.5845 32.5865 42.455 31.0012C44.0884 29.3647 38.6879 23.5861 35.5265 21.2592C35.5265 21.2336 35.4997 21.2337 35.4997 21.2337ZM41.8756 36.4477C40.9535 36.4477 40.0842 36.6009 39.3466 36.8822C38.5826 37.189 37.9239 37.6235 37.3707 38.2116C36.7911 38.7997 36.3694 39.5161 36.0796 40.2832C35.7899 41.0503 35.6582 41.945 35.6582 42.8911C35.6582 43.8372 35.7899 44.7319 36.0796 45.499C36.3694 46.2661 36.7911 46.9565 37.3707 47.5446C37.9503 48.1327 38.6089 48.5677 39.3466 48.8745C40.0842 49.1558 40.9535 49.309 41.8756 49.309C42.824 49.309 43.667 49.1813 44.4046 48.8745C45.1423 48.5932 45.8009 48.1327 46.3805 47.5446C46.9338 46.9565 47.3555 46.2661 47.6453 45.499C47.9351 44.7319 48.0667 43.8372 48.0667 42.8911C48.0667 41.9194 47.9088 41.0503 47.6453 40.2832C47.3819 39.5161 46.9338 38.7997 46.3805 38.2116C45.8273 37.6235 45.1423 37.1635 44.4046 36.8822C43.6406 36.6009 42.7977 36.4477 41.8756 36.4477ZM12.3952 36.7289L16.7946 42.6354L12 49.0533H14.1601L17.9014 44.0672L21.616 49.0533H23.7761L18.9815 42.6354L23.4077 36.7289H21.2471L17.9014 41.2036L14.5553 36.7289H12.3952ZM24.8037 36.7289V41.9707H23.1442L21.9587 43.5558H24.8037V49.0533H30.7314C32.1013 49.0533 33.1551 48.7211 33.8928 48.1074C34.6305 47.4937 34.9996 46.6244 34.9996 45.5504C34.9996 44.8856 34.8149 44.2718 34.4197 43.786C34.0509 43.3002 33.5241 42.8911 32.8127 42.6354C33.9192 42.0473 34.4727 41.1268 34.4727 39.9506C34.4727 39.0045 34.1301 38.2119 33.4451 37.6238C32.7601 37.0357 31.7851 36.7289 30.4942 36.7289H24.8037ZM47.5923 36.7289L52.0185 42.6354L47.2234 49.0533H49.384L53.0986 44.0672L56.8394 49.0533H59L54.1786 42.6354L58.6048 36.7289H56.4442L53.0986 41.2036L49.7529 36.7289H47.5923ZM41.8756 38.1352C43.1402 38.1352 44.1675 38.5699 44.9315 39.4137C45.6956 40.2575 46.0646 41.4336 46.0646 42.8911C46.0646 44.3486 45.6956 45.4992 44.9315 46.343C44.1675 47.1868 43.1402 47.6215 41.8756 47.6215C40.5847 47.6215 39.5837 47.1868 38.8197 46.343C38.0556 45.4992 37.6604 44.3486 37.6604 42.8911C37.6604 41.4336 38.0556 40.2831 38.8197 39.4137C39.5837 38.5699 40.611 38.1352 41.8756 38.1352ZM26.7271 38.3395H30.3624C31.0737 38.3395 31.6273 38.4931 31.9961 38.7999C32.3913 39.1068 32.5755 39.5415 32.5755 40.0784C32.5755 40.7177 32.3912 41.2034 32.0224 41.5102C31.6535 41.8426 31.1001 41.9961 30.3624 41.9961H26.7271V38.3395ZM26.7271 43.5558H30.6526C31.443 43.5558 32.0486 43.7093 32.4438 44.0417C32.839 44.3486 33.0499 44.8598 33.0499 45.499C33.0499 46.1127 32.8391 46.5989 32.4176 46.9313C31.996 47.2381 31.3899 47.4167 30.6259 47.4167H26.7271V43.5558ZM17.4008 53.8606C16.8475 53.8606 16.3997 53.9885 16.0835 54.2187C15.7674 54.4488 15.6091 54.7809 15.6091 55.19C15.6091 55.5991 15.7408 55.9063 16.0043 56.1364C16.2677 56.3665 16.6629 56.5455 17.1898 56.6478L17.6117 56.7497C18.0333 56.8519 18.349 56.9545 18.5071 57.0568C18.6651 57.1847 18.7443 57.3382 18.7443 57.5427C18.7443 57.7984 18.639 58.0026 18.4546 58.156C18.2438 58.2838 17.9538 58.3608 17.585 58.3608C17.1371 58.3608 16.795 58.2586 16.5579 58.0796C16.3208 57.9006 16.2152 57.619 16.2152 57.2611H15.4774C15.4774 57.8236 15.6621 58.2587 16.0573 58.5655C16.4261 58.8724 16.9531 59 17.6117 59C18.2177 59 18.7182 58.8722 19.0607 58.6165C19.4032 58.3608 19.5876 57.9774 19.5876 57.5427C19.5876 57.1592 19.4559 56.8519 19.1925 56.6218C18.929 56.3917 18.5073 56.2127 17.9277 56.1104L17.48 56.0085C17.0585 55.9318 16.7685 55.8037 16.6104 55.7014C16.4523 55.5991 16.3732 55.4201 16.3732 55.19C16.3732 54.9599 16.4522 54.8065 16.6367 54.6786C16.8211 54.5508 17.0583 54.4998 17.4008 54.4998C17.8223 54.4998 18.1384 54.5766 18.3229 54.7301C18.5073 54.8835 18.6124 55.1134 18.6388 55.4202H19.4292C19.4292 54.9344 19.2447 54.5509 18.9022 54.2696C18.5598 53.9883 18.0594 53.8606 17.4008 53.8606ZM44.6943 53.8606C44.1411 53.8606 43.6932 53.9885 43.3771 54.2187C43.0609 54.4488 42.9032 54.7809 42.9032 55.19C42.9032 55.5991 43.0349 55.9063 43.2983 56.1364C43.5618 56.3665 43.957 56.5455 44.4839 56.6478L44.9053 56.7497C45.3268 56.8519 45.6431 56.9545 45.8011 57.0568C45.9592 57.1847 46.0378 57.3382 46.0378 57.5427C46.0378 57.7984 45.9326 58.0026 45.7481 58.156C45.5374 58.2838 45.2479 58.3608 44.8791 58.3608C44.4312 58.3608 44.0886 58.2586 43.8515 58.0796C43.6144 57.9006 43.5088 57.619 43.5088 57.2611H42.7447C42.7447 57.8236 42.9294 58.2587 43.3246 58.5655C43.6934 58.8724 44.2204 59 44.8791 59C45.485 59 45.9856 58.8722 46.328 58.6165C46.6705 58.3608 46.8549 57.9774 46.8549 57.5427C46.9076 57.1592 46.7757 56.8519 46.5123 56.6218C46.2488 56.3917 45.8271 56.2127 45.2475 56.1104L44.7998 56.0085C44.3783 55.9318 44.0883 55.8037 43.9302 55.7014C43.7721 55.5991 43.6935 55.4201 43.6935 55.19C43.6935 54.9599 43.7726 54.8065 43.957 54.6786C44.1414 54.5508 44.3781 54.4998 44.7206 54.4998C45.1421 54.4998 45.4582 54.5766 45.6427 54.7301C45.8271 54.8835 45.9328 55.1134 45.9591 55.4202H46.7232C46.7232 54.9344 46.5388 54.5509 46.1963 54.2696C45.8538 53.9883 45.353 53.8606 44.6943 53.8606ZM21.6685 53.9884V58.9231H25.2781V58.2329H22.4326V56.7242H24.9616V56.0849H22.4326V54.6532H25.2781V53.9884H21.6685ZM27.4912 53.9884V58.9231H28.2548V56.9035H29.7305C30.0203 56.9035 30.2307 56.9799 30.3624 57.1077C30.4941 57.2356 30.5734 57.4656 30.5734 57.7725L30.5996 58.3098C30.5996 58.5911 30.6522 58.7956 30.7576 58.9491H31.548C31.4689 58.7701 31.4163 58.5655 31.39 58.3098L31.3375 57.5427C31.3375 57.2615 31.2582 57.0565 31.1528 56.8775C31.0474 56.7241 30.863 56.5965 30.6259 56.5454C30.8893 56.4687 31.1003 56.315 31.232 56.1104C31.3901 55.9059 31.4692 55.6502 31.4692 55.3433C31.4692 54.9086 31.311 54.5766 30.9948 54.3465C30.6787 54.1164 30.257 53.9884 29.7038 53.9884H27.4912ZM33.7611 53.9884V58.9231H34.5252V53.9884H33.7611ZM37.0805 53.9884V58.9231H40.7163V58.2329H37.8446V56.7242H40.3736V56.0849H37.8446V54.6532H40.7163V53.9884H37.0805ZM50.9117 53.9884L52.6771 56.3406L50.7537 58.9231H51.6233L53.0986 56.929L54.6 58.9231H55.4696L53.5462 56.3406L55.3117 53.9884H54.4421L53.0986 55.7783L51.7813 53.9884H50.9117ZM28.3078 54.6277H29.6776C29.9937 54.6277 30.2574 54.7041 30.4154 54.8319C30.5735 54.9598 30.6789 55.1645 30.6789 55.4202C30.6789 55.6759 30.5997 55.9062 30.4417 56.034C30.2836 56.1874 30.0466 56.2642 29.7568 56.2642H28.3078V54.6277Z" fill="white"/>
</svg>
